<?xml version="1.0" standalone="no"?>
<!DOCTYPE svg PUBLIC "-//W3C//DTD SVG 20010904//EN"
 "http://www.w3.org/TR/2001/REC-SVG-20010904/DTD/svg10.dtd">
<svg version="1.0" xmlns="http://www.w3.org/2000/svg"
 width="512.000000pt" height="512.000000pt" viewBox="0 0 512.000000 512.000000"
 preserveAspectRatio="xMidYMid meet">
<metadata>
Created by potrace 1.11, written by Peter Selinger 2001-2013
</metadata>
<g transform="translate(0.000000,512.000000) scale(0.100000,-0.100000)"
fill="#000000" stroke="none">
<path d="M2325 5089 c-44 -4 -93 -10 -109 -13 -16 -3 -50 -8 -75 -12 -84 -11
-287 -62 -397 -100 -675 -228 -1225 -735 -1514 -1394 -90 -206 -164 -477 -195
-720 -10 -79 -13 -442 -4 -525 37 -343 124 -642 270 -925 362 -701 1049 -1210
1809 -1339 36 -6 79 -13 95 -16 155 -27 560 -27 705 -1 14 3 43 7 64 11 32 4
124 23 196 39 284 65 651 238 896 422 496 372 823 869 968 1469 18 73 43 232
55 340 9 80 7 472 -2 511 -3 12 -8 45 -12 74 -4 29 -9 62 -11 74 -2 12 -7 37
-10 56 -23 135 -96 373 -159 520 -73 171 -235 446 -327 556 -234 280 -408 437
-663 599 -110 70 -336 180 -468 229 -119 44 -385 114 -457 121 -25 2 -124 17
-145 22 -38 8 -430 10 -510 2z"/>
</g>
</svg>
